HIERARCHY
ROOT Hips
{
     OFFSET 1.88212 96.90440 -13.34250
     CHANNELS 6 Xposition Yposition Zposition Zrotation Xrotation Yrotation
     JOINT Spine
     {
          OFFSET 0.00000 11.89050 0.00000
          CHANNELS 3 Zrotation Xrotation Yrotation
          JOINT Spine1
          {
               OFFSET -0.00000 25.65740 0.12766
               CHANNELS 3 Zrotation Xrotation Yrotation
               JOINT HEad
               {
                    OFFSET 0.00000 8.73416 0.01134
                    CHANNELS 3 Zrotation Xrotation Yrotation
                    End Site
                    {
                         OFFSET -0.29000 12.77420 2.51395
                    }
               }
               JOINT LeftShoulder1
               {
                    OFFSET 8.99000 -0.36225 -0.22000
                    CHANNELS 3 Zrotation Xrotation Yrotation
                    JOINT LeftArm
                    {
                         OFFSET 10.28270 -0.00338 0.32212
                         CHANNELS 3 Zrotation Xrotation Yrotation
                         JOINT LeftForeArm
                         {
                              OFFSET 32.76690 0.09914 -1.42434
                              CHANNELS 3 Zrotation Xrotation Yrotation
                              JOINT LeftHand
                              {
                                   OFFSET 27.56430 0.08536 1.02216
                                   CHANNELS 3 Zrotation Xrotation Yrotation
                                   End Site
                                   {
                                        OFFSET 16.74430 -0.60000 1.50291
                                   }
                              }
                         }
                    }
               }
               JOINT RightShoulder
               {
                    OFFSET -8.99000 -0.36225 -0.22000
                    CHANNELS 3 Zrotation Xrotation Yrotation
                    JOINT RightArm
                    {
                         OFFSET -10.28270 -0.00338 0.32212
                         CHANNELS 3 Zrotation Xrotation Yrotation
                         JOINT RightForeArm
                         {
                              OFFSET -32.89710 0.09914 -1.42434
                              CHANNELS 3 Zrotation Xrotation Yrotation
                              JOINT RightHand
                              {
                                   OFFSET -27.49210 0.08536 1.02216
                                   CHANNELS 3 Zrotation Xrotation Yrotation
                                   End Site
                                   {
                                        OFFSET -16.63120 -0.60000 1.50291
                                   }
                              }
                         }
                    }
               }
          }
     }
     JOINT LeftUpLeg
     {
          OFFSET 8.94580 -8.66707 0.10165
          CHANNELS 3 Zrotation Xrotation Yrotation
          JOINT LeftLeg
          {
               OFFSET 0.00000 -44.42270 1.37270
               CHANNELS 3 Zrotation Xrotation Yrotation
               JOINT LeftFoot
               {
                    OFFSET -0.25355 -42.09240 -1.46059
                    CHANNELS 3 Zrotation Xrotation Yrotation
                    JOINT LeftToes
                    {
                         OFFSET -0.04000 -4.41509 8.49910
                         CHANNELS 3 Zrotation Xrotation Yrotation
                         End Site
                         {
                              OFFSET 0.08000 -0.04745 9.77979
                         }
                    }
               }
          }
     }
     JOINT RightUpLeg
     {
          OFFSET -8.94580 -8.66707 0.10165
          CHANNELS 3 Zrotation Xrotation Yrotation
          JOINT RightLeg
          {
               OFFSET 0.00000 -44.42270 1.37270
               CHANNELS 3 Zrotation Xrotation Yrotation
               JOINT RightFoot
               {
                    OFFSET 0.25355 -42.09240 -1.46059
                    CHANNELS 3 Zrotation Xrotation Yrotation
                    JOINT RightToes
                    {
                         OFFSET 0.04000 -4.41509 8.49910
                         CHANNELS 3 Zrotation Xrotation Yrotation
                         End Site
                         {
                              OFFSET -0.08000 -0.13745 9.77979
                         }
                    }
               }
          }
     }
}
MOTION
Frames: 10
Frame Time: 0.01667
100.94871 86.77839 -103.40497 -8.51675 -0.96301 -42.68056 7.79911 13.52820 0.28748 -0.08221 0.09911 0.06138 1.72955 17.03431 2.85876 -17.94657 10.76795 18.98992 -102.24743 -56.50324 -83.87965 -39.32023 57.60381 -104.54035 7.14869 8.48308 1.92039 1.22304 18.93768 25.68958 69.96491 -26.85688 71.57349 27.51486 47.32511 111.77762 -6.72598 13.27103 -0.70973 0.54534 -27.31510 18.03450 371.72058 41.70535 -368.39490 8.49853 -0.62230 0.39480 -15.08611 -4.78359 -6.32432 -19.90754 -10.01960 0.31989 -299.08652 61.75783 327.05743 13.93966 -0.00019 -0.19954 -0.21562 -17.43683 -0.66957 
103.21864 89.43896 -102.79633 -4.41090 -1.37568 -46.51428 3.17281 12.34429 3.09523 0.00026 0.01111 0.02526 1.41138 18.48103 2.47459 -17.25353 9.15936 18.53150 -101.03466 -56.86885 -82.18133 -37.95642 58.11162 -105.78835 7.07943 8.80551 1.08368 2.19680 17.46100 25.53094 68.53834 -27.01161 69.47598 27.79337 47.18593 112.60295 -6.66745 12.09000 -0.79881 -4.91999 -27.21497 14.46397 374.68289 34.60976 -370.98135 -0.85646 -0.68989 0.30641 4.06775 -2.24726 -13.91736 -17.88733 -7.18883 -2.74672 -310.65768 61.09663 336.35959 6.61401 -0.19073 -0.05666 -2.68570 -29.07367 -2.37830 
105.33061 91.38747 -102.61407 -0.95588 -1.85957 -49.91074 -0.78231 11.06109 5.53087 0.00110 0.00884 0.02061 0.13628 18.94807 3.76486 -10.19544 7.43222 7.00072 -107.28526 -67.61974 -82.14505 -36.93746 58.64779 -107.30338 7.43606 8.56474 1.10334 8.77655 11.62517 14.10962 63.48770 -15.61388 66.54049 27.94396 47.00269 112.93882 -6.42808 12.85724 0.19986 -9.63588 -27.14964 9.68082 377.37582 28.57626 -372.54251 -10.25379 -0.74229 0.17307 6.28707 6.34875 -15.62917 -15.34073 -3.45659 -6.03029 -328.42947 55.91970 349.09991 -0.92572 -0.33731 0.19429 -0.06855 -38.25314 -8.90156 
107.17900 92.73831 -102.75381 2.17716 -2.41870 -53.20618 -4.43300 9.59995 7.80101 0.00135 0.00735 0.00731 -1.33702 19.07663 5.48269 -5.35850 5.30197 -0.31698 -112.91846 -74.89420 -83.48137 -36.14127 59.18360 -109.05582 7.67663 8.51252 1.04210 13.02426 6.77973 7.13083 60.16911 -8.09566 64.96449 28.19896 46.72680 112.98420 -6.30641 13.15818 1.01007 -14.07200 -27.03753 4.45240 379.73343 22.84637 -373.36221 -19.08569 -0.71748 0.07441 8.75466 11.91982 -13.01516 -12.86126 0.12588 -9.39079 -341.43631 48.44593 358.28992 -7.67428 -0.27403 0.18299 5.82590 -42.58229 -15.47758 
109.14024 93.43307 -103.09418 4.94743 -2.99935 -56.41261 -7.73945 8.04027 9.88451 0.00082 0.00197 0.00203 -2.72856 19.08813 7.19473 -1.80311 3.52472 -4.75368 -115.30779 -78.53097 -83.45453 -34.83527 58.66195 -110.56794 7.79036 8.36274 0.96464 15.90386 3.24524 2.71057 58.00264 -3.28293 64.21718 28.49843 46.46637 112.91035 -6.32657 13.24878 1.57240 -17.97457 -26.89623 -1.05742 382.22443 17.54707 -373.85681 -27.53938 -0.69616 -0.00594 9.41186 11.61742 -11.07417 -10.42849 3.52236 -12.77294 -351.14694 39.18072 364.57626 -12.18119 -0.21691 0.13703 4.49809 -46.00045 -20.74914 
110.98879 93.76703 -103.50835 7.38126 -3.56616 -59.52872 -10.71049 6.40212 11.77549 -0.00051 -0.00145 -0.00093 -4.02467 18.98869 8.90889 0.96213 2.30162 -7.14820 -112.75973 -79.25301 -79.87383 -33.13755 57.18972 -111.69304 7.80685 8.11101 0.96121 17.97068 0.96916 -0.17049 57.32498 -1.42292 63.60588 28.63838 46.19159 112.55737 -5.68706 12.10235 2.55561 -21.06158 -26.73735 -6.60286 384.92798 12.86514 -374.16522 -35.68637 -0.65875 -0.09184 10.60469 6.01409 -8.72946 -8.05166 6.77036 -16.14731 -357.84631 28.78458 368.92633 -15.06282 -0.14837 0.09548 -0.85682 -48.33451 -23.43678 
112.64162 93.36732 -103.92605 8.89460 -4.28185 -62.71505 -13.45923 5.34285 13.28768 -0.01236 0.01608 -0.02767 -5.39905 18.97308 10.74558 3.11934 1.54819 -7.95886 -108.30349 -77.87528 -75.29282 -32.08320 55.92101 -110.23791 8.48640 8.82599 0.44946 18.41855 1.29351 -4.87307 59.84481 1.00189 65.81822 28.41912 46.30163 110.89878 -4.35178 12.99209 -1.39540 -22.75016 -25.94500 -11.61068 385.69580 9.04605 -372.77808 -30.42992 0.32084 0.01068 2.92354 2.50120 -4.37141 -5.87995 10.42257 -19.01600 -361.40329 17.35107 370.70276 -15.07101 -0.02106 -0.01071 -2.60588 -47.29265 -21.33307 
114.17788 92.90787 -104.23860 9.52312 -5.06042 -65.85017 -15.96422 4.84765 14.36643 -0.01047 0.01748 -0.02891 -6.89237 19.05800 12.62856 4.77185 1.23071 -7.42814 -104.69591 -74.85562 -72.17323 -31.64810 54.89340 -106.55457 9.75469 10.34866 -1.12143 19.04481 1.86129 -7.63969 62.32229 2.62375 67.10258 27.47525 45.47789 108.64265 -1.82196 15.15646 -7.26681 -23.06240 -24.53282 -16.06642 386.47656 5.86988 -370.44107 -24.84418 0.35166 -0.06003 -0.87913 5.39472 3.15294 -3.94559 14.48634 -21.56910 -362.68951 5.44905 370.93097 -13.29870 0.08188 -0.09504 -2.30134 -43.83228 -16.02093 
115.63731 92.31831 -104.46497 9.31014 -5.81936 -68.84621 -18.19976 4.93589 14.98921 -0.00760 0.01750 -0.02845 -8.53429 19.19427 14.54512 5.99738 1.22700 -5.89895 -102.17419 -71.86534 -70.61168 -31.65391 53.77565 -103.02148 11.04373 11.79493 -2.53787 19.72374 2.60639 -8.82840 64.76628 3.64939 67.69987 25.69544 43.85391 106.13078 2.14370 18.41367 -13.47619 -22.18156 -22.52812 -20.05383 387.10675 3.22107 -367.17670 -18.84726 0.30376 -0.10629 -6.46043 8.56023 9.52664 -2.24150 18.91246 -23.94464 -362.18262 -6.40801 370.27820 -10.61060 0.15024 -0.15690 -1.63277 -38.53587 -9.28079 
116.96712 91.61125 -104.61825 6.68773 -6.30293 -71.03981 -19.14488 6.83602 15.08819 0.00349 0.00164 0.00437 -10.49747 20.47878 15.35559 5.80933 2.14876 -3.74611 -101.53145 -69.83723 -71.74534 -31.70664 53.18342 -100.42281 12.24884 13.04153 -3.72810 20.11053 3.78306 -6.61017 67.07046 2.56917 67.04765 21.84451 39.54147 102.48796 5.78960 11.27612 -0.17977 -18.88048 -18.68874 -23.32925 386.02582 1.96452 -361.12332 -11.78217 0.11566 -0.14805 -14.17238 10.67780 12.21779 -0.93425 24.31360 -25.61761 -358.65729 -16.66754 367.08200 -7.89139 0.21310 -0.21072 -0.07274 -29.86327 0.23823 
